# xmcd
#
# Track frame offsets:
#	150
#	10639
#	20129
#	29459
#	41635
#	53809
#	64058
#	77472
#	88922
#	97078
#	107346
#	119886
#	131564
#	140657
#	152216
#	164695
#	176737
#	187036
#
# Disc length: 2658 seconds
#
# Revision: 0
# Processed by: cddbd v1.5.2PL0 Copyright (c) Steve Scherf et al.
# Submitted via: EasyCDDAExtractor 10.1.0.1
#
DISCID=010a6012
DTITLE=Miss Crystal and the Codgers
DYEAR=2007
DGENRE=Bluegrass
TTITLE0=June Apple
TTITLE1=Old Horse and Buggy
TTITLE2=Washington's March
TTITLE3=Ook Pik Waltz
TTITLE4=Old French
TTITLE5=Booth Shot Lincoln
TTITLE6=The Czar of Russia's Favorite
TTITLE7=Old Jawbone
TTITLE8=Pucheon Floor
TTITLE9=Stump Tailed Dog
TTITLE10=Cricket on a Hearth
TTITLE11=Bonapart Crossing the Rocky Mountains - Boatin' up the Sandy
TTITLE12=Twin Sisters
TTITLE13=Swallowtail Jig - Ducks on the Pond
TTITLE14=Sunflower Waltz
TTITLE15=Shove That Pig's Foot a Little Further in the Fire
TTITLE16=Mike in the Wilderness
TTITLE17=Willcott's Hornpipe
EXTD=
EXTT0=
EXTT1=
EXTT2=
EXTT3=
EXTT4=
EXTT5=
EXTT6=
EXTT7=
EXTT8=
EXTT9=
EXTT10=
EXTT11=
EXTT12=
EXTT13=
EXTT14=
EXTT15=
EXTT16=
EXTT17=
PLAYORDER=
